<svg id="レイヤー_1" data-name="レイヤー 1" xmlns="http://www.w3.org/2000/svg" viewBox="0 0 419.33 160.89"><defs><style>.cls-1{fill:#423b35;}</style></defs><path class="cls-1" d="M211.7,317.25l36-100.29H281L317,317.25H284.26l-4-13.22H247.65l-3.76,13.22Zm52.36-70.06-10.2,35.93h20.79Z" transform="translate(-211.7 -216.96)"/><path class="cls-1" d="M390.46,271.69,390.32,217h30.35V317.25H389.9l-35.76-54.62v54.62H324V217h30.7Z" transform="translate(-211.7 -216.96)"/><path class="cls-1" d="M427.61,317.25,463.52,217H497l35.94,100.29H500.14L496.27,304H463.52l-3.74,13.22ZM480,247.19l-10.19,35.93h20.78Z" transform="translate(-211.7 -216.96)"/><path class="cls-1" d="M539.92,317.25V217h48.32C617.07,217,631,230.17,631,250.8c0,21.57-12.82,35.27-41.66,35.27H572.79v31.18Zm46.52-54.62c7.67,0,13.2-3.08,13.2-11.7,0-9.33-10.58-10.54-17.53-10.54h-9.32v22.24Z" transform="translate(-211.7 -216.96)"/><path class="cls-1" d="M616.77,300.38a8.41,8.41,0,1,0,8.38,8.42A8.42,8.42,0,0,0,616.77,300.38Zm-6.88,8.42a6.85,6.85,0,0,1,3-5.64v11.23A6.79,6.79,0,0,1,609.89,308.8Zm4.61,6.4V310h1.59a5.11,5.11,0,0,1,1.63,2.06l1.68,3a6.79,6.79,0,0,1-2.63.53A6.58,6.58,0,0,1,614.5,315.2Zm0-6.53v-4.58h1.68a3.11,3.11,0,0,1,1.92.52,2.18,2.18,0,0,1,.56,1.61,2.33,2.33,0,0,1-.59,1.73,2.7,2.7,0,0,1-2,.72Zm6.28,5.63-1.46-2.65a4.59,4.59,0,0,0-.84-1.41,2.73,2.73,0,0,0-.76-.53,4.71,4.71,0,0,0,2.06-1.48,3.55,3.55,0,0,0,.67-2.15,3.31,3.31,0,0,0-.89-2.36,4.44,4.44,0,0,0-2.86-.93h-3.2a6.73,6.73,0,0,1,3.27-.87,6.84,6.84,0,0,1,4,12.38Z" transform="translate(-211.7 -216.96)"/><rect class="cls-1" x="32.85" y="128.28" width="8.15" height="24.46" rx="0.09"/><rect class="cls-1" x="8.4" y="152.74" width="24.45" height="8.15" rx="0.09"/><rect class="cls-1" x="0.25" y="128.28" width="8.15" height="24.46" rx="0.09"/><rect class="cls-1" x="8.4" y="120.13" width="24.45" height="8.15" rx="0.09"/><path class="cls-1" d="M275.12,345.32a.09.09,0,0,1,.09-.08h24.28a.09.09,0,0,0,.09-.09v-8a.09.09,0,0,0-.09-.08H267.05a.09.09,0,0,0-.08.08v40.59a.08.08,0,0,0,.08.08h8a.08.08,0,0,0,.08-.08V361.63a.09.09,0,0,1,.09-.09h24.28a.09.09,0,0,0,.09-.08v-8a.09.09,0,0,0-.09-.09H275.21a.09.09,0,0,1-.09-.08Z" transform="translate(-211.7 -216.96)"/><rect class="cls-1" x="87.88" y="128.28" width="8.15" height="8.15" rx="0.09"/><path class="cls-1" d="M353.32,345.24a.08.08,0,0,0,.08-.09v-8a.08.08,0,0,0-.08-.08H320.88a.09.09,0,0,0-.08.08v40.59a.08.08,0,0,0,.08.08h32.44a.07.07,0,0,0,.08-.08v-8a.07.07,0,0,0-.08-.08H329a.09.09,0,0,1-.08-.09v-8a.09.09,0,0,1,.08-.09h16.06a.09.09,0,0,0,.08-.08v-8a.09.09,0,0,0-.08-.09H329a.09.09,0,0,1-.08-.08v-8a.09.09,0,0,1,.08-.08Z" transform="translate(-211.7 -216.96)"/><path class="cls-1" d="M377.35,345.24a.09.09,0,0,1-.09-.09v-8a.09.09,0,0,0-.08-.08h-8a.09.09,0,0,0-.08.08v40.59a.08.08,0,0,0,.08.08h8a.08.08,0,0,0,.08-.08V353.48a.09.09,0,0,1,.09-.09h8a.09.09,0,0,0,.08-.08v-8a.09.09,0,0,0-.08-.08Z" transform="translate(-211.7 -216.96)"/><rect class="cls-1" x="173.72" y="136.43" width="8.15" height="8.15" rx="0.09"/><path class="cls-1" d="M401.8,337.09a.08.08,0,0,0-.08.08v24.29a.09.09,0,0,1-.09.08h-8a.09.09,0,0,0-.09.09v8a.09.09,0,0,0,.09.09h8a.08.08,0,0,1,.09.08v8a.07.07,0,0,0,.08.08h8a.08.08,0,0,0,.09-.08V337.17a.09.09,0,0,0-.09-.08Z" transform="translate(-211.7 -216.96)"/><rect class="cls-1" x="230.86" y="120.13" width="24.45" height="8.15" rx="0.09"/><path class="cls-1" d="M467.09,345.24a.09.09,0,0,0-.08.08v8a.09.09,0,0,1-.09.08H442.64a.09.09,0,0,1-.09-.08v-8a.08.08,0,0,0-.08-.08h-8a.09.09,0,0,0-.09.08v32.44a.08.08,0,0,0,.09.08h8a.07.07,0,0,0,.08-.08V361.63a.09.09,0,0,1,.09-.09h24.28a.09.09,0,0,1,.09.09v16.13a.08.08,0,0,0,.08.08h8a.08.08,0,0,0,.08-.08V345.32a.09.09,0,0,0-.08-.08Z" transform="translate(-211.7 -216.96)"/><path class="cls-1" d="M499.9,353.39a.09.09,0,0,1-.08-.08v-8a.09.09,0,0,1,.08-.08h24.29a.09.09,0,0,0,.08-.09v-8a.09.09,0,0,0-.08-.08H491.75a.08.08,0,0,0-.08.08v40.59a.07.07,0,0,0,.08.08h8a.08.08,0,0,0,.09-.08V361.63a.09.09,0,0,1,.08-.09h24.29a.09.09,0,0,0,.08-.08v-8a.09.09,0,0,0-.08-.09Z" transform="translate(-211.7 -216.96)"/><rect class="cls-1" x="312.57" y="128.28" width="8.15" height="8.15" rx="0.09"/><rect class="cls-1" x="312.57" y="144.58" width="8.15" height="16.3" rx="0.09"/><path class="cls-1" d="M545.06,337.09a.09.09,0,0,0-.09.08v8a.09.09,0,0,0,.09.09h16.13a.09.09,0,0,1,.09.08v32.44a.07.07,0,0,0,.08.08h8a.08.08,0,0,0,.09-.08V345.32a.09.09,0,0,1,.08-.08h16.14a.09.09,0,0,0,.08-.09v-8a.09.09,0,0,0-.08-.08Z" transform="translate(-211.7 -216.96)"/><rect class="cls-1" x="385.39" y="134.8" width="6.52" height="6.52" rx="0.09"/><rect class="cls-1" x="391.91" y="128.28" width="26.09" height="6.52" rx="0.09"/><rect class="cls-1" x="391.91" y="141.32" width="19.56" height="6.52" rx="0.09"/><rect class="cls-1" x="385.39" y="154.37" width="26.08" height="6.52" rx="0.09"/><rect class="cls-1" x="411.47" y="147.84" width="6.52" height="6.52" rx="0.09"/></svg>